<svg width="426" height="98" viewBox="0 0 426 98" fill="none" xmlns="http://www.w3.org/2000/svg">
<path d="M0.184 45.888C0.184 40.512 1.24 35.808 3.352 31.776C5.528 27.744 8.504 24.64 12.28 22.464C16.12 20.288 20.472 19.2 25.336 19.2C30.84 19.2 35.512 20.544 39.352 23.232C43.192 25.92 45.88 29.344 47.416 33.504V19.872H51.736V72H47.416V58.272C45.88 62.496 43.16 65.984 39.256 68.736C35.416 71.424 30.776 72.768 25.336 72.768C20.472 72.768 16.12 71.68 12.28 69.504C8.504 67.264 5.528 64.128 3.352 60.096C1.24 56 0.184 51.264 0.184 45.888ZM47.416 45.888C47.416 41.344 46.456 37.344 44.536 33.888C42.68 30.368 40.12 27.68 36.856 25.824C33.592 23.904 29.944 22.944 25.912 22.944C21.688 22.944 17.976 23.872 14.776 25.728C11.576 27.52 9.08 30.144 7.288 33.6C5.496 37.056 4.6 41.152 4.6 45.888C4.6 50.624 5.496 54.72 7.288 58.176C9.08 61.632 11.576 64.288 14.776 66.144C18.04 68 21.752 68.928 25.912 68.928C29.944 68.928 33.592 68 36.856 66.144C40.184 64.224 42.776 61.536 44.632 58.08C46.488 54.56 47.416 50.496 47.416 45.888ZM71.7858 0.959999V72H67.4658V0.959999H71.7858ZM110.086 19.2C115.59 19.2 120.262 20.544 124.102 23.232C127.942 25.856 130.63 29.248 132.166 33.408V19.872H136.486V73.632C136.486 78.432 135.43 82.624 133.318 86.208C131.206 89.856 128.358 92.64 124.774 94.56C121.19 96.544 117.19 97.536 112.774 97.536C106.246 97.536 100.838 95.968 96.55 92.832C92.262 89.696 89.446 85.472 88.102 80.16H92.422C93.702 84.32 96.102 87.616 99.622 90.048C103.142 92.544 107.526 93.792 112.774 93.792C116.422 93.792 119.718 92.96 122.662 91.296C125.606 89.696 127.91 87.36 129.574 84.288C131.302 81.28 132.166 77.728 132.166 73.632V58.368C130.63 62.528 127.91 65.984 124.006 68.736C120.166 71.424 115.526 72.768 110.086 72.768C105.222 72.768 100.87 71.68 97.03 69.504C93.254 67.264 90.278 64.128 88.102 60.096C85.99 56 84.934 51.264 84.934 45.888C84.934 40.512 85.99 35.808 88.102 31.776C90.278 27.744 93.254 24.64 97.03 22.464C100.87 20.288 105.222 19.2 110.086 19.2ZM132.166 45.888C132.166 41.344 131.206 37.344 129.286 33.888C127.43 30.368 124.87 27.68 121.606 25.824C118.342 23.904 114.694 22.944 110.662 22.944C106.438 22.944 102.726 23.872 99.526 25.728C96.326 27.52 93.83 30.144 92.038 33.6C90.246 37.056 89.35 41.152 89.35 45.888C89.35 50.624 90.246 54.72 92.038 58.176C93.83 61.632 96.326 64.288 99.526 66.144C102.79 68 106.502 68.928 110.662 68.928C114.694 68.928 118.342 68 121.606 66.144C124.934 64.224 127.526 61.536 129.382 58.08C131.238 54.56 132.166 50.496 132.166 45.888ZM175.16 72.768C170.296 72.768 165.912 71.68 162.008 69.504C158.104 67.328 155.032 64.224 152.792 60.192C150.616 56.096 149.528 51.328 149.528 45.888C149.528 40.512 150.648 35.808 152.888 31.776C155.128 27.68 158.2 24.576 162.104 22.464C166.072 20.288 170.488 19.2 175.352 19.2C180.216 19.2 184.6 20.288 188.504 22.464C192.408 24.576 195.448 27.648 197.624 31.68C199.864 35.712 200.984 40.448 200.984 45.888C200.984 51.328 199.864 56.096 197.624 60.192C195.384 64.224 192.28 67.328 188.312 69.504C184.408 71.68 180.024 72.768 175.16 72.768ZM175.16 68.928C178.936 68.928 182.456 68.096 185.72 66.432C189.048 64.704 191.704 62.112 193.688 58.656C195.672 55.2 196.664 50.944 196.664 45.888C196.664 40.896 195.672 36.672 193.688 33.216C191.704 29.76 189.08 27.2 185.816 25.536C182.552 23.808 179.032 22.944 175.256 22.944C171.48 22.944 167.96 23.808 164.696 25.536C161.496 27.2 158.904 29.76 156.92 33.216C154.936 36.672 153.944 40.896 153.944 45.888C153.944 50.944 154.904 55.2 156.824 58.656C158.808 62.112 161.4 64.704 164.6 66.432C167.864 68.096 171.384 68.928 175.16 68.928ZM275.051 19.008C280.811 19.008 285.547 20.896 289.259 24.672C292.971 28.448 294.827 34.144 294.827 41.76V72H293.003V41.568C293.003 34.784 291.403 29.632 288.203 26.112C285.003 22.528 280.619 20.736 275.051 20.736C269.227 20.736 264.523 22.816 260.939 26.976C257.355 31.072 255.563 37.056 255.563 44.928V72H253.739V41.568C253.739 34.784 252.139 29.632 248.939 26.112C245.739 22.528 241.355 20.736 235.787 20.736C229.899 20.736 225.163 22.816 221.579 26.976C218.059 31.072 216.299 37.056 216.299 44.928V72H214.379V20.16H216.299V33.888C217.579 28.896 219.947 25.184 223.403 22.752C226.923 20.256 231.051 19.008 235.787 19.008C240.651 19.008 244.811 20.384 248.267 23.136C251.787 25.824 254.027 29.92 254.987 35.424C256.139 29.92 258.507 25.824 262.091 23.136C265.739 20.384 270.059 19.008 275.051 19.008ZM308.26 46.08C308.26 40.64 309.316 35.936 311.428 31.968C313.54 27.936 316.516 24.864 320.356 22.752C324.196 20.576 328.58 19.488 333.508 19.488C339.46 19.488 344.484 21.056 348.58 24.192C352.74 27.264 355.524 31.2 356.932 36V20.16H358.756V72H356.932V56.16C355.524 60.96 352.74 64.928 348.58 68.064C344.484 71.136 339.46 72.672 333.508 72.672C328.58 72.672 324.196 71.616 320.356 69.504C316.516 67.328 313.54 64.256 311.428 60.288C309.316 56.256 308.26 51.52 308.26 46.08ZM356.932 46.08C356.932 41.152 355.908 36.832 353.86 33.12C351.876 29.344 349.092 26.432 345.508 24.384C341.988 22.272 337.988 21.216 333.508 21.216C328.772 21.216 324.644 22.208 321.124 24.192C317.668 26.176 314.98 29.056 313.06 32.832C311.14 36.544 310.18 40.96 310.18 46.08C310.18 51.2 311.14 55.648 313.06 59.424C314.98 63.136 317.668 65.984 321.124 67.968C324.644 69.952 328.772 70.944 333.508 70.944C337.988 70.944 341.988 69.92 345.508 67.872C349.092 65.76 351.876 62.848 353.86 59.136C355.908 55.36 356.932 51.008 356.932 46.08ZM376.89 36C378.298 31.2 381.05 27.264 385.146 24.192C389.306 21.056 394.362 19.488 400.314 19.488C405.242 19.488 409.626 20.576 413.466 22.752C417.306 24.864 420.282 27.936 422.394 31.968C424.506 35.936 425.562 40.64 425.562 46.08C425.562 51.52 424.506 56.256 422.394 60.288C420.282 64.256 417.306 67.328 413.466 69.504C409.626 71.616 405.242 72.672 400.314 72.672C394.362 72.672 389.306 71.136 385.146 68.064C381.05 64.928 378.298 60.96 376.89 56.16V96.384H375.066V20.16H376.89V36ZM423.642 46.08C423.642 40.96 422.682 36.544 420.762 32.832C418.842 29.056 416.122 26.176 412.602 24.192C409.146 22.208 405.05 21.216 400.314 21.216C395.834 21.216 391.802 22.272 388.218 24.384C384.698 26.432 381.914 29.344 379.866 33.12C377.882 36.832 376.89 41.152 376.89 46.08C376.89 51.008 377.882 55.36 379.866 59.136C381.914 62.848 384.698 65.76 388.218 67.872C391.802 69.92 395.834 70.944 400.314 70.944C405.05 70.944 409.146 69.952 412.602 67.968C416.122 65.984 418.842 63.136 420.762 59.424C422.682 55.648 423.642 51.2 423.642 46.08Z" fill="black"/>
</svg>
